G75*
G70*
%OFA0B0*%
%FSLAX24Y24*%
%IPPOS*%
%LPD*%
%AMOC8*
5,1,8,0,0,1.08239X$1,22.5*
%
%ADD10R,0.0474X0.0513*%
%ADD11R,0.0513X0.0474*%
%ADD12R,0.0440X0.0780*%
%ADD13R,0.1080X0.0580*%
%ADD14R,0.0198X0.0552*%
%ADD15R,0.2080X0.1080*%
%ADD16C,0.4080*%
%ADD17OC8,0.0600*%
%ADD18C,0.0480*%
D10*
X004765Y001880D03*
X005435Y001880D03*
X008850Y003995D03*
X008850Y004665D03*
X005335Y005630D03*
X004665Y005630D03*
X004715Y009330D03*
X005385Y009330D03*
X005385Y010580D03*
X004715Y010580D03*
D11*
X004715Y008130D03*
X005385Y008130D03*
X005385Y003930D03*
X004715Y003930D03*
X007765Y001830D03*
X008435Y001830D03*
D12*
X008060Y006770D03*
X007010Y006770D03*
D13*
X007510Y009350D03*
D14*
X007406Y005472D03*
X007662Y005472D03*
X007918Y005472D03*
X007150Y005472D03*
X006894Y005472D03*
X006638Y005472D03*
X006382Y005472D03*
X006382Y003188D03*
X006638Y003188D03*
X006894Y003188D03*
X007150Y003188D03*
X007406Y003188D03*
X007662Y003188D03*
X007918Y003188D03*
D15*
X013100Y001890D03*
X013100Y010740D03*
D16*
X013100Y006090D03*
D17*
X001050Y004930D03*
X001050Y003930D03*
X001050Y007550D03*
X001050Y008550D03*
D18*
X002580Y002370D03*
X004290Y002370D03*
X005640Y002460D03*
X007130Y002260D03*
X008110Y002580D03*
X009690Y002490D03*
X009580Y003750D03*
X007500Y004080D03*
X007090Y004790D03*
X006030Y006120D03*
X004560Y004800D03*
X003120Y006240D03*
X003390Y006690D03*
X003740Y007970D03*
X003840Y009490D03*
X007080Y010110D03*
X010310Y010100D03*
X014540Y010530D03*
M02*
