G75*
G70*
%OFA0B0*%
%FSLAX24Y24*%
%IPPOS*%
%LPD*%
%AMOC8*
5,1,8,0,0,1.08239X$1,22.5*
%
%ADD10R,0.1700X0.3300*%
%ADD11R,0.0500X0.1000*%
%ADD12R,0.0350X0.0750*%
%ADD13R,0.0433X0.0394*%
%ADD14R,0.0394X0.0433*%
%ADD15R,0.0500X0.0250*%
%ADD16C,0.0120*%
%ADD17R,0.0360X0.0700*%
%ADD18R,0.0472X0.0472*%
%ADD19OC8,0.0520*%
%ADD20R,0.0591X0.0787*%
%ADD21C,0.0080*%
%ADD22C,0.0400*%
%ADD23C,0.0100*%
D10*
X007600Y008130D03*
D11*
X007500Y005980D03*
D12*
X008075Y010055D03*
D13*
X003150Y009615D03*
X003150Y008945D03*
X001800Y007515D03*
X001800Y006845D03*
X001850Y005365D03*
X001850Y004695D03*
D14*
X014115Y003430D03*
X014785Y003430D03*
D15*
X011680Y005290D03*
X010680Y005290D03*
X009680Y005290D03*
X009680Y007290D03*
X010680Y007290D03*
X011680Y007290D03*
X005480Y007290D03*
X004480Y007290D03*
X003480Y007290D03*
X003480Y005290D03*
X004480Y005290D03*
X005480Y005290D03*
D16*
X004980Y005290D01*
X004480Y005290D01*
X003980Y005290D01*
X003480Y005290D01*
X003730Y005665D02*
X003730Y007290D01*
X004230Y007290D01*
X004730Y007290D01*
X005230Y007290D01*
X005230Y005665D01*
X004980Y005290D02*
X004980Y006915D01*
X004480Y006915D02*
X004480Y005290D01*
X004230Y005665D02*
X004230Y007290D01*
X003730Y007290D02*
X003480Y007290D01*
X003980Y006915D02*
X003980Y005290D01*
X004730Y005665D02*
X004730Y007290D01*
X005230Y007290D02*
X005480Y007290D01*
X005480Y006915D02*
X005480Y005290D01*
X009680Y005290D02*
X010180Y005290D01*
X010180Y006915D01*
X010680Y006915D02*
X010680Y005290D01*
X010180Y005290D01*
X009930Y005665D02*
X009930Y007290D01*
X010430Y007290D01*
X010930Y007290D01*
X011430Y007290D01*
X011430Y005665D01*
X011180Y005290D02*
X010680Y005290D01*
X010430Y005665D02*
X010430Y007290D01*
X009930Y007290D02*
X009680Y007290D01*
X010930Y007290D02*
X010930Y005665D01*
X011180Y005290D02*
X011180Y006915D01*
X011680Y006915D02*
X011680Y005290D01*
X011180Y005290D01*
X011430Y007290D02*
X011680Y007290D01*
D17*
X009550Y001680D03*
X008550Y001680D03*
X007550Y001680D03*
X006550Y001680D03*
X005550Y001680D03*
X004550Y001680D03*
D18*
X002150Y003227D03*
X002150Y004053D03*
X002650Y004997D03*
X002650Y005823D03*
X002650Y006767D03*
X002650Y007593D03*
X002150Y008537D03*
X002150Y009363D03*
X001650Y010207D03*
X001650Y011033D03*
X001650Y002403D03*
X001650Y001577D03*
D19*
X001050Y003980D03*
X001050Y004980D03*
X001050Y007600D03*
X001050Y008600D03*
D20*
X013609Y008630D03*
X014791Y008630D03*
D21*
X014820Y008450D01*
X014820Y008630D01*
X014791Y008630D01*
X011680Y007290D02*
X011660Y007270D01*
X011400Y007280D02*
X011430Y005665D01*
X011680Y005290D02*
X011720Y005280D01*
X011820Y005300D02*
X010680Y005290D01*
X009580Y003800D02*
X009510Y003770D01*
X008790Y003770D01*
X007710Y002690D01*
X007710Y002510D01*
X008550Y001680D01*
X008610Y001790D01*
X008430Y001790D01*
X008430Y001810D01*
X008500Y001880D01*
X008550Y001680D01*
X007550Y001680D02*
X007230Y002230D01*
X007130Y002310D01*
X006550Y001680D02*
X006580Y003030D01*
X006590Y004040D01*
X007090Y004840D01*
X007500Y005010D02*
X006540Y005970D01*
X006540Y008980D01*
X004460Y011060D01*
X001680Y011060D01*
X001650Y011033D01*
X001590Y011060D01*
X000780Y010250D01*
X000750Y009980D01*
X001850Y008480D01*
X001800Y007515D01*
X001890Y008610D01*
X002180Y008720D01*
X002130Y008540D01*
X002150Y008537D01*
X003120Y008900D02*
X003120Y008090D01*
X002670Y007640D01*
X002650Y007593D01*
X002670Y007550D01*
X002950Y007530D01*
X003030Y007450D01*
X003030Y006200D01*
X003120Y006290D01*
X003030Y006200D02*
X002670Y005840D01*
X002650Y005823D01*
X002070Y006110D02*
X002070Y005300D01*
X001860Y005300D01*
X001850Y005365D01*
X002070Y005300D02*
X002310Y005300D01*
X002580Y005030D01*
X002650Y004997D01*
X003030Y004670D02*
X002580Y004220D01*
X002580Y002960D01*
X001950Y002330D01*
X001680Y002330D01*
X001650Y002403D01*
X001030Y002740D02*
X001950Y003410D01*
X002150Y003227D01*
X002130Y003230D01*
X001950Y003410D01*
X001500Y003860D01*
X001500Y006520D01*
X001830Y006790D01*
X001800Y006845D01*
X002430Y006520D02*
X002070Y006110D01*
X002430Y006520D02*
X002580Y006740D01*
X002650Y006767D01*
X003390Y006740D02*
X003390Y006560D01*
X003480Y006470D01*
X003480Y005840D01*
X003030Y005390D01*
X003030Y004670D01*
X002580Y004220D02*
X002490Y004130D01*
X002220Y004130D01*
X002150Y004053D01*
X002130Y004130D01*
X001860Y004400D01*
X001860Y004670D01*
X001850Y004695D01*
X001050Y004980D02*
X001050Y005030D01*
X000600Y005480D01*
X000600Y008130D01*
X001050Y008580D01*
X001050Y008600D01*
X002150Y009363D02*
X002310Y009530D01*
X001680Y010160D01*
X001650Y010207D01*
X001680Y010250D01*
X002310Y009530D02*
X003120Y009530D01*
X003150Y009615D01*
X003840Y009540D02*
X004740Y008630D01*
X005910Y007460D01*
X005910Y007100D01*
X005460Y006650D01*
X005480Y005290D01*
X006030Y005190D02*
X006030Y006170D01*
X006030Y005190D02*
X004650Y003860D01*
X004650Y001830D01*
X004650Y001680D01*
X004550Y001680D01*
X004290Y002420D02*
X002580Y002420D01*
X001590Y001700D02*
X001380Y001700D01*
X001350Y001730D01*
X001030Y001860D01*
X001030Y002740D01*
X001590Y001700D02*
X001590Y001520D01*
X001650Y001577D01*
X005550Y001680D02*
X005640Y001890D01*
X005640Y002510D01*
X007500Y004130D02*
X007500Y005010D01*
X004560Y004850D02*
X004560Y005210D01*
X004480Y005290D01*
X004470Y007280D02*
X004230Y007290D01*
X004470Y007280D02*
X004480Y007290D01*
X003740Y007370D02*
X003740Y008020D01*
X003740Y007370D02*
X003480Y007280D01*
X003480Y007290D01*
X003120Y008900D02*
X003150Y008945D01*
X002310Y009530D02*
X002220Y009440D01*
X002150Y009363D01*
X007080Y010160D02*
X007350Y010430D01*
X009000Y010430D01*
X009900Y009530D01*
X009900Y007280D01*
X011400Y007280D01*
X010680Y007280D02*
X010430Y007290D01*
X010680Y007280D02*
X010680Y007290D01*
X011026Y008623D02*
X011040Y008630D01*
X014100Y003500D02*
X014115Y003430D01*
X014730Y003500D02*
X014785Y003430D01*
X014820Y003500D01*
X009690Y002540D02*
X009690Y001790D01*
X009550Y001680D01*
D22*
X009690Y002540D03*
X008110Y002630D03*
X007130Y002310D03*
X005640Y002510D03*
X004290Y002420D03*
X002580Y002420D03*
X004560Y004850D03*
X006030Y006170D03*
X007090Y004840D03*
X007500Y004130D03*
X009580Y003800D03*
X003390Y006740D03*
X003120Y006290D03*
X003740Y008020D03*
X003840Y009540D03*
X007080Y010160D03*
X010310Y010150D03*
X014440Y010730D03*
D23*
X000150Y011600D02*
X000150Y000980D01*
X009550Y000980D01*
X009552Y001022D01*
X009558Y001064D01*
X009567Y001105D01*
X009580Y001145D01*
X009597Y001184D01*
X009617Y001221D01*
X009640Y001256D01*
X009666Y001289D01*
X009695Y001320D01*
X009727Y001347D01*
X009761Y001372D01*
X009797Y001394D01*
X009835Y001412D01*
X009875Y001427D01*
X009915Y001438D01*
X009957Y001446D01*
X009999Y001450D01*
X010041Y001450D01*
X010083Y001446D01*
X010125Y001438D01*
X010165Y001427D01*
X010205Y001412D01*
X010243Y001394D01*
X010279Y001372D01*
X010313Y001347D01*
X010345Y001320D01*
X010374Y001289D01*
X010400Y001256D01*
X010423Y001221D01*
X010443Y001184D01*
X010460Y001145D01*
X010473Y001105D01*
X010482Y001064D01*
X010488Y001022D01*
X010490Y000980D01*
X014440Y000980D01*
X017050Y003590D01*
X017050Y008990D01*
X014440Y011600D01*
X010490Y011600D01*
X010488Y011558D01*
X010482Y011516D01*
X010473Y011475D01*
X010460Y011435D01*
X010443Y011396D01*
X010423Y011359D01*
X010400Y011324D01*
X010374Y011291D01*
X010345Y011260D01*
X010313Y011233D01*
X010279Y011208D01*
X010243Y011186D01*
X010205Y011168D01*
X010165Y011153D01*
X010125Y011142D01*
X010083Y011134D01*
X010041Y011130D01*
X009999Y011130D01*
X009957Y011134D01*
X009915Y011142D01*
X009875Y011153D01*
X009835Y011168D01*
X009797Y011186D01*
X009761Y011208D01*
X009727Y011233D01*
X009695Y011260D01*
X009666Y011291D01*
X009640Y011324D01*
X009617Y011359D01*
X009597Y011396D01*
X009580Y011435D01*
X009567Y011475D01*
X009558Y011516D01*
X009552Y011558D01*
X009550Y011600D01*
X000150Y011600D01*
X010310Y010150D02*
X011026Y008623D01*
X011660Y007270D01*
X011040Y008630D02*
X013609Y008630D01*
X014820Y008450D02*
X014440Y010730D01*
X014820Y008450D02*
X014820Y003500D01*
X014100Y003500D02*
X011720Y005280D01*
X011820Y005300D02*
X009150Y002630D01*
X008110Y002630D01*
M02*
