G75*
G70*
%OFA0B0*%
%FSLAX24Y24*%
%IPPOS*%
%LPD*%
%AMOC8*
5,1,8,0,0,1.08239X$1,22.5*
%
%ADD10R,0.0394X0.0433*%
%ADD11R,0.0433X0.0394*%
%ADD12R,0.1180X0.1000*%
%ADD13R,0.0360X0.0700*%
%ADD14R,0.1000X0.0500*%
%ADD15R,0.0118X0.0472*%
%ADD16R,0.2000X0.1000*%
%ADD17C,0.4000*%
%ADD18OC8,0.0520*%
%ADD19C,0.0080*%
%ADD20C,0.0400*%
%ADD21C,0.0100*%
D10*
X004765Y001930D03*
X005435Y001930D03*
X008850Y004045D03*
X008850Y004715D03*
X005335Y005680D03*
X004665Y005680D03*
X004715Y009380D03*
X005385Y009380D03*
X005385Y010630D03*
X004715Y010630D03*
D11*
X004715Y008180D03*
X005385Y008180D03*
X005385Y003980D03*
X004715Y003980D03*
X007765Y001880D03*
X008435Y001880D03*
D12*
X007540Y009280D03*
D13*
X008060Y006820D03*
X007010Y006820D03*
D14*
X007510Y009400D03*
D15*
X007406Y005522D03*
X007662Y005522D03*
X007918Y005522D03*
X007150Y005522D03*
X006894Y005522D03*
X006638Y005522D03*
X006382Y005522D03*
X006382Y003238D03*
X006638Y003238D03*
X006894Y003238D03*
X007150Y003238D03*
X007406Y003238D03*
X007662Y003238D03*
X007918Y003238D03*
D16*
X013100Y001940D03*
X013100Y010790D03*
D17*
X013100Y006140D03*
D18*
X001050Y004980D03*
X001050Y003980D03*
X001050Y007600D03*
X001050Y008600D03*
D19*
X001050Y008540D01*
X001770Y008020D01*
X003740Y008020D01*
X004715Y008180D02*
X004740Y008180D01*
X004740Y007640D01*
X004850Y007530D01*
X005450Y007530D01*
X006340Y006630D01*
X006030Y006170D01*
X006340Y006630D02*
X006900Y006020D01*
X006900Y005570D01*
X006894Y005522D01*
X007150Y005522D02*
X007170Y005480D01*
X007170Y005120D01*
X007090Y004840D01*
X006810Y004580D02*
X007500Y004130D01*
X006810Y004580D02*
X006630Y004760D01*
X006630Y005480D01*
X006638Y005522D01*
X006382Y005522D02*
X006360Y005570D01*
X006090Y005570D01*
X004920Y006740D01*
X003390Y006740D01*
X003120Y006290D02*
X004650Y006290D01*
X005010Y005930D01*
X005010Y005390D01*
X005830Y004570D01*
X005830Y003600D01*
X006160Y003270D01*
X006360Y003270D01*
X006382Y003238D01*
X006090Y002870D02*
X006810Y002870D01*
X006900Y002960D01*
X006900Y003230D01*
X006894Y003238D01*
X007150Y003238D02*
X007170Y003230D01*
X007170Y002960D01*
X006180Y001970D01*
X005640Y001970D01*
X005640Y002510D01*
X006090Y002870D02*
X005460Y003500D01*
X005460Y003950D01*
X005385Y003980D01*
X005370Y004040D01*
X005370Y004410D01*
X005300Y004480D01*
X004560Y004850D01*
X004650Y004040D02*
X003420Y004040D01*
X003420Y002510D01*
X004510Y001420D01*
X008130Y001420D01*
X008430Y001720D01*
X008500Y001720D01*
X008500Y001780D01*
X008400Y001780D01*
X008400Y001830D01*
X008435Y001880D01*
X008520Y002060D01*
X007765Y001880D02*
X007660Y002060D01*
X007660Y002630D01*
X007660Y003230D01*
X007662Y003238D01*
X007406Y003238D02*
X007400Y003320D01*
X007400Y002830D01*
X007130Y002310D01*
X007918Y003238D02*
X007940Y003370D01*
X008610Y004040D01*
X008790Y004040D01*
X008850Y004045D01*
X008880Y004130D01*
X009290Y003940D01*
X009240Y003950D02*
X009578Y003801D01*
X009580Y003800D02*
X009240Y003950D01*
X008790Y004670D02*
X008850Y004715D01*
X008790Y004760D01*
X008120Y005430D01*
X007940Y005430D01*
X007918Y005522D01*
X007990Y005570D01*
X007660Y005570D02*
X007662Y005522D01*
X007660Y005570D02*
X007660Y006470D01*
X008060Y006820D01*
X007400Y006470D02*
X007080Y006740D01*
X007010Y006820D01*
X007400Y006470D02*
X007400Y005570D01*
X007406Y005522D01*
X007400Y003630D02*
X005370Y005660D01*
X005335Y005680D01*
X004665Y005680D02*
X004650Y005750D01*
X002850Y005750D01*
X001050Y007550D01*
X001050Y007600D01*
X003840Y009540D02*
X004740Y010610D01*
X004715Y010630D01*
X005370Y010610D02*
X005385Y010630D01*
X005460Y010700D01*
X005370Y010610D02*
X005370Y009440D01*
X005385Y009380D01*
X004740Y009350D02*
X004715Y009380D01*
X004740Y009350D02*
X004740Y008180D01*
X005385Y008180D02*
X005460Y008180D01*
X005460Y008540D01*
X007080Y010160D01*
X011580Y010700D02*
X013200Y010730D01*
X013100Y010790D02*
X013920Y010700D01*
X013830Y010790D01*
X013100Y010790D01*
X013110Y006200D02*
X013100Y006140D01*
X013020Y006110D01*
X009690Y003140D02*
X009690Y002540D01*
X007400Y003320D02*
X007400Y003630D01*
X005640Y001970D02*
X005460Y001970D01*
X005435Y001930D01*
X004765Y001930D02*
X004740Y001970D01*
X004290Y002420D01*
X002580Y002420D02*
X001050Y003950D01*
X001050Y003980D01*
X001950Y004040D02*
X001050Y004940D01*
X001050Y004980D01*
X001950Y004040D02*
X003420Y004040D01*
X004650Y004040D02*
X004715Y003980D01*
D20*
X002580Y002420D03*
X004290Y002420D03*
X005640Y002510D03*
X007130Y002310D03*
X008110Y002630D03*
X009690Y002540D03*
X009580Y003800D03*
X007500Y004130D03*
X007090Y004840D03*
X006030Y006170D03*
X004560Y004850D03*
X003120Y006290D03*
X003390Y006740D03*
X003740Y008020D03*
X003840Y009540D03*
X007080Y010160D03*
X010310Y010150D03*
X014440Y010730D03*
D21*
X013200Y010730D01*
X013920Y010700D02*
X011580Y010700D01*
X009020Y010700D01*
X009000Y010680D01*
X009000Y005430D01*
X009540Y004740D01*
X009540Y003940D01*
X009550Y003830D01*
X009578Y003801D01*
X009290Y003940D01*
X009070Y003140D02*
X009690Y003140D01*
X010050Y003140D01*
X013020Y006110D01*
X013110Y006200D02*
X010310Y010150D01*
X009020Y010700D02*
X005460Y010700D01*
X007080Y010160D02*
X007980Y010160D01*
X008730Y009860D01*
X008730Y006470D01*
X007990Y005930D01*
X007990Y005570D01*
X009070Y003140D02*
X009050Y003130D01*
X008520Y002600D01*
X008520Y002060D01*
X008110Y002630D02*
X007660Y002630D01*
M02*
