G75*
G70*
%OFA0B0*%
%FSLAX24Y24*%
%IPPOS*%
%LPD*%
%AMOC8*
5,1,8,0,0,1.08239X$1,22.5*
%
%ADD10C,0.0160*%
%ADD11R,0.0474X0.0513*%
%ADD12R,0.0513X0.0474*%
%ADD13R,0.0440X0.0780*%
%ADD14R,0.1080X0.0580*%
%ADD15R,0.0198X0.0552*%
%ADD16R,0.2080X0.1080*%
%ADD17C,0.4080*%
%ADD18OC8,0.0600*%
%ADD19C,0.0480*%
D10*
X000180Y000980D02*
X009530Y000980D01*
X000180Y000980D01*
X000180Y011580D01*
X009480Y011580D01*
X009480Y011080D01*
X010630Y011080D01*
X010630Y011580D01*
X014480Y011580D01*
X017080Y008980D01*
X017080Y003580D01*
X014480Y000980D01*
X010580Y000980D01*
X010580Y001480D01*
X009530Y001480D01*
X009530Y000980D01*
X009530Y001139D02*
X000180Y001139D01*
X000180Y001297D02*
X009530Y001297D01*
X009530Y001456D02*
X000180Y001456D01*
X000180Y001614D02*
X015114Y001614D01*
X014956Y001456D02*
X010580Y001456D01*
X010580Y001297D02*
X014797Y001297D01*
X014639Y001139D02*
X010580Y001139D01*
X010580Y000980D02*
X014480Y000980D01*
X015273Y001773D02*
X000180Y001773D01*
X000180Y001931D02*
X015431Y001931D01*
X015590Y002090D02*
X000180Y002090D01*
X000180Y002248D02*
X015748Y002248D01*
X015907Y002407D02*
X000180Y002407D01*
X000180Y002565D02*
X016065Y002565D01*
X016224Y002724D02*
X000180Y002724D01*
X000180Y002882D02*
X016382Y002882D01*
X016541Y003041D02*
X000180Y003041D01*
X000180Y003199D02*
X016699Y003199D01*
X016858Y003358D02*
X000180Y003358D01*
X000180Y003516D02*
X017016Y003516D01*
X017080Y003675D02*
X000180Y003675D01*
X000180Y003833D02*
X017080Y003833D01*
X017080Y003992D02*
X000180Y003992D01*
X000180Y004150D02*
X017080Y004150D01*
X017080Y004309D02*
X000180Y004309D01*
X000180Y004467D02*
X017080Y004467D01*
X017080Y004626D02*
X000180Y004626D01*
X000180Y004784D02*
X017080Y004784D01*
X017080Y004943D02*
X000180Y004943D01*
X000180Y005101D02*
X017080Y005101D01*
X017080Y005260D02*
X000180Y005260D01*
X000180Y005418D02*
X017080Y005418D01*
X017080Y005577D02*
X000180Y005577D01*
X000180Y005735D02*
X017080Y005735D01*
X017080Y005894D02*
X000180Y005894D01*
X000180Y006052D02*
X017080Y006052D01*
X017080Y006211D02*
X000180Y006211D01*
X000180Y006369D02*
X017080Y006369D01*
X017080Y006528D02*
X000180Y006528D01*
X000180Y006686D02*
X017080Y006686D01*
X017080Y006845D02*
X000180Y006845D01*
X000180Y007003D02*
X017080Y007003D01*
X017080Y007162D02*
X000180Y007162D01*
X000180Y007320D02*
X017080Y007320D01*
X017080Y007479D02*
X000180Y007479D01*
X000180Y007637D02*
X017080Y007637D01*
X017080Y007796D02*
X000180Y007796D01*
X000180Y007954D02*
X017080Y007954D01*
X017080Y008113D02*
X000180Y008113D01*
X000180Y008271D02*
X017080Y008271D01*
X017080Y008430D02*
X000180Y008430D01*
X000180Y008588D02*
X017080Y008588D01*
X017080Y008747D02*
X000180Y008747D01*
X000180Y008905D02*
X017080Y008905D01*
X016996Y009064D02*
X000180Y009064D01*
X000180Y009222D02*
X016838Y009222D01*
X016679Y009381D02*
X000180Y009381D01*
X000180Y009539D02*
X016521Y009539D01*
X016362Y009698D02*
X000180Y009698D01*
X000180Y009856D02*
X016204Y009856D01*
X016045Y010015D02*
X000180Y010015D01*
X000180Y010173D02*
X015887Y010173D01*
X015728Y010332D02*
X000180Y010332D01*
X000180Y010490D02*
X015570Y010490D01*
X015411Y010649D02*
X000180Y010649D01*
X000180Y010807D02*
X015253Y010807D01*
X015094Y010966D02*
X000180Y010966D01*
X000180Y011124D02*
X009480Y011124D01*
X009480Y011230D02*
X009580Y011230D01*
X009580Y011080D01*
X010530Y011080D01*
X010530Y011330D01*
X010630Y011283D02*
X014777Y011283D01*
X014936Y011124D02*
X010630Y011124D01*
X010630Y011441D02*
X014619Y011441D01*
X010580Y011580D02*
X010578Y011535D01*
X010572Y011491D01*
X010563Y011448D01*
X010550Y011405D01*
X010533Y011364D01*
X010513Y011324D01*
X010490Y011286D01*
X010463Y011250D01*
X010434Y011217D01*
X010402Y011186D01*
X010367Y011158D01*
X010330Y011133D01*
X010291Y011111D01*
X010251Y011093D01*
X010209Y011078D01*
X010166Y011067D01*
X010122Y011059D01*
X010077Y011055D01*
X010033Y011055D01*
X009988Y011059D01*
X009944Y011067D01*
X009901Y011078D01*
X009859Y011093D01*
X009819Y011111D01*
X009780Y011133D01*
X009743Y011158D01*
X009708Y011186D01*
X009676Y011217D01*
X009647Y011250D01*
X009620Y011286D01*
X009597Y011324D01*
X009577Y011364D01*
X009560Y011405D01*
X009547Y011448D01*
X009538Y011491D01*
X009532Y011535D01*
X009530Y011580D01*
X009480Y011441D02*
X000180Y011441D01*
X000180Y011283D02*
X009480Y011283D01*
X009530Y000980D02*
X009532Y001025D01*
X009538Y001069D01*
X009547Y001112D01*
X009560Y001155D01*
X009577Y001196D01*
X009597Y001236D01*
X009620Y001274D01*
X009647Y001310D01*
X009676Y001343D01*
X009708Y001374D01*
X009743Y001402D01*
X009780Y001427D01*
X009819Y001449D01*
X009859Y001467D01*
X009901Y001482D01*
X009944Y001493D01*
X009988Y001501D01*
X010033Y001505D01*
X010077Y001505D01*
X010122Y001501D01*
X010166Y001493D01*
X010209Y001482D01*
X010251Y001467D01*
X010291Y001449D01*
X010330Y001427D01*
X010367Y001402D01*
X010402Y001374D01*
X010434Y001343D01*
X010463Y001310D01*
X010490Y001274D01*
X010513Y001236D01*
X010533Y001196D01*
X010550Y001155D01*
X010563Y001112D01*
X010572Y001069D01*
X010578Y001025D01*
X010580Y000980D01*
D11*
X008880Y004045D03*
X008880Y004715D03*
X005365Y005680D03*
X004695Y005680D03*
X004745Y009380D03*
X005415Y009380D03*
X005415Y010630D03*
X004745Y010630D03*
X004795Y001930D03*
X005465Y001930D03*
D12*
X007795Y001880D03*
X008465Y001880D03*
X005415Y003980D03*
X004745Y003980D03*
X004745Y008180D03*
X005415Y008180D03*
D13*
X007040Y006820D03*
X008090Y006820D03*
D14*
X007540Y009400D03*
D15*
X007436Y005522D03*
X007692Y005522D03*
X007948Y005522D03*
X007180Y005522D03*
X006924Y005522D03*
X006668Y005522D03*
X006412Y005522D03*
X006412Y003238D03*
X006668Y003238D03*
X006924Y003238D03*
X007180Y003238D03*
X007436Y003238D03*
X007692Y003238D03*
X007948Y003238D03*
D16*
X013130Y001940D03*
X013130Y010790D03*
D17*
X013130Y006140D03*
D18*
X001080Y004980D03*
X001080Y003980D03*
X001080Y007600D03*
X001080Y008600D03*
D19*
X003770Y008020D03*
X003420Y006740D03*
X003150Y006290D03*
X004590Y004850D03*
X006060Y006170D03*
X007120Y004840D03*
X007530Y004130D03*
X009610Y003800D03*
X008140Y002630D03*
X007160Y002310D03*
X005670Y002510D03*
X004320Y002420D03*
X002610Y002420D03*
X009720Y002540D03*
X003870Y009540D03*
X007110Y010160D03*
X010340Y010150D03*
X014470Y010730D03*
M02*
