%
M48
M72
T01C0.0240
T02C0.0320
%
T01
X2580Y2420
X4290Y2420
X5640Y2510
X7130Y2310
X8110Y2630
X9690Y2540
X9580Y3800
X7500Y4130
X7090Y4840
X6030Y6170
X4560Y4850
X3120Y6290
X3390Y6740
X3740Y8020
X3840Y9540
X7080Y10160
X10310Y10150
X14440Y10730
T02
X1050Y8600
X1050Y7600
X1050Y4980
X1050Y3980
M30
